<?xml version="1.0" encoding="UTF-8" standalone="no"?>
<svg
   xmlns:dc="http://purl.org/dc/elements/1.1/"
   xmlns:cc="http://creativecommons.org/ns#"
   xmlns:rdf="http://www.w3.org/1999/02/22-rdf-syntax-ns#"
   xmlns:svg="http://www.w3.org/2000/svg"
   xmlns="http://www.w3.org/2000/svg"
   xmlns:xlink="http://www.w3.org/1999/xlink"
   xmlns:sodipodi="http://sodipodi.sourceforge.net/DTD/sodipodi-0.dtd"
   xmlns:inkscape="http://www.inkscape.org/namespaces/inkscape"
   viewBox="0 0 128 128"
   id="svg2"
   version="1.1"
   inkscape:version="0.91 r13725"
   sodipodi:docname="logo.svg"
   width="128"
   height="128"
   inkscape:export-filename="/home/christian/Downloads/logo-sem-nome.png"
   inkscape:export-xdpi="98.489998"
   inkscape:export-ydpi="98.489998">
  <metadata
     id="metadata84">
    <rdf:RDF>
      <cc:Work
         rdf:about="">
        <dc:format>image/svg+xml</dc:format>
        <dc:type
           rdf:resource="http://purl.org/dc/dcmitype/StillImage" />
        <dc:title />
      </cc:Work>
    </rdf:RDF>
  </metadata>
  <defs
     id="defs82">
    <linearGradient
       id="linearGradient610"
       x1="191.24544"
       x2="418.19019"
       xlink:href="#linearGradient607"
       y1="348.07251"
       y2="403.09445"
       gradientTransform="matrix(0.07096831,0.00559205,-0.01735888,0.2394018,78.338327,-20.80141)"
       gradientUnits="userSpaceOnUse" />
    <linearGradient
       id="linearGradient607">
      <stop
         offset="0"
         stop-color="#ffff4f"
         id="stop96" />
      <stop
         offset="1"
         stop-color="#6f5545"
         id="stop98" />
    </linearGradient>
    <clipPath
       clipPathUnits="userSpaceOnUse"
       id="clipPath3328">
      <rect
         style="fill:#0000ff;fill-rule:evenodd;stroke:#000000;stroke-width:1px;stroke-linecap:butt;stroke-linejoin:miter;stroke-opacity:1"
         id="rect3330"
         width="199.16533"
         height="229.04013"
         x="-87.318985"
         y="101.10667" />
    </clipPath>
    <clipPath
       clipPathUnits="userSpaceOnUse"
       id="clipPath3332">
      <rect
         style="fill:#0000ff;fill-rule:evenodd;stroke:#000000;stroke-width:1px;stroke-linecap:butt;stroke-linejoin:miter;stroke-opacity:1"
         id="rect3334"
         width="199.16533"
         height="229.04013"
         x="-126.13804"
         y="-70.555519" />
    </clipPath>
    <clipPath
       clipPathUnits="userSpaceOnUse"
       id="clipPath3336">
      <rect
         style="fill:#0000ff;fill-rule:evenodd;stroke:#000000;stroke-width:1px;stroke-linecap:butt;stroke-linejoin:miter;stroke-opacity:1"
         id="rect3338"
         width="199.16533"
         height="229.04013"
         x="-126.13804"
         y="-70.555519" />
    </clipPath>
    <clipPath
       clipPathUnits="userSpaceOnUse"
       id="clipPath3340">
      <rect
         style="fill:#0000ff;fill-rule:evenodd;stroke:#000000;stroke-width:1px;stroke-linecap:butt;stroke-linejoin:miter;stroke-opacity:1"
         id="rect3342"
         width="199.16533"
         height="229.04013"
         x="-126.13804"
         y="-70.555519" />
    </clipPath>
    <clipPath
       clipPathUnits="userSpaceOnUse"
       id="clipPath3344">
      <rect
         style="fill:#0000ff;fill-rule:evenodd;stroke:#000000;stroke-width:1px;stroke-linecap:butt;stroke-linejoin:miter;stroke-opacity:1"
         id="rect3346"
         width="199.16533"
         height="229.04013"
         x="-126.13804"
         y="-70.555519" />
    </clipPath>
    <clipPath
       clipPathUnits="userSpaceOnUse"
       id="clipPath3348">
      <rect
         style="fill:#0000ff;fill-rule:evenodd;stroke:#000000;stroke-width:1px;stroke-linecap:butt;stroke-linejoin:miter;stroke-opacity:1"
         id="rect3350"
         width="199.16533"
         height="229.04013"
         x="-126.13804"
         y="-70.555519" />
    </clipPath>
    <clipPath
       clipPathUnits="userSpaceOnUse"
       id="clipPath3352">
      <rect
         style="fill:#0000ff;fill-rule:evenodd;stroke:#000000;stroke-width:1px;stroke-linecap:butt;stroke-linejoin:miter;stroke-opacity:1"
         id="rect3354"
         width="199.16533"
         height="229.04013"
         x="-126.13804"
         y="-70.555519" />
    </clipPath>
    <clipPath
       clipPathUnits="userSpaceOnUse"
       id="clipPath3356">
      <rect
         style="fill:#0000ff;fill-rule:evenodd;stroke:#000000;stroke-width:1px;stroke-linecap:butt;stroke-linejoin:miter;stroke-opacity:1"
         id="rect3358"
         width="199.16533"
         height="229.04013"
         x="-126.13804"
         y="-70.555519" />
    </clipPath>
    <clipPath
       clipPathUnits="userSpaceOnUse"
       id="clipPath3360">
      <rect
         style="fill:#0000ff;fill-rule:evenodd;stroke:#000000;stroke-width:1px;stroke-linecap:butt;stroke-linejoin:miter;stroke-opacity:1"
         id="rect3362"
         width="199.16533"
         height="229.04013"
         x="-126.13804"
         y="-70.555519" />
    </clipPath>
    <clipPath
       clipPathUnits="userSpaceOnUse"
       id="clipPath3364">
      <rect
         style="fill:#0000ff;fill-rule:evenodd;stroke:#000000;stroke-width:1px;stroke-linecap:butt;stroke-linejoin:miter;stroke-opacity:1"
         id="rect3366"
         width="199.16533"
         height="229.04013"
         x="-126.13804"
         y="-70.555519" />
    </clipPath>
    <clipPath
       clipPathUnits="userSpaceOnUse"
       id="clipPath3368">
      <rect
         style="fill:#0000ff;fill-rule:evenodd;stroke:#000000;stroke-width:1.15799367px;stroke-linecap:butt;stroke-linejoin:miter;stroke-opacity:1"
         id="rect3370"
         width="236.10376"
         height="259.08051"
         x="-680.30103"
         y="-431.01999"
         transform="scale(-1,-1)" />
    </clipPath>
    <clipPath
       clipPathUnits="userSpaceOnUse"
       id="clipPath3372">
      <rect
         style="fill:#0000ff;fill-rule:evenodd;stroke:#000000;stroke-width:1px;stroke-linecap:butt;stroke-linejoin:miter;stroke-opacity:1"
         id="rect3374"
         width="199.16533"
         height="229.04013"
         x="-227.87138"
         y="133.33524" />
    </clipPath>
    <clipPath
       clipPathUnits="userSpaceOnUse"
       id="clipPath3376">
      <rect
         style="fill:#0000ff;fill-rule:evenodd;stroke:#000000;stroke-width:1px;stroke-linecap:butt;stroke-linejoin:miter;stroke-opacity:1"
         id="rect3378"
         width="199.16559"
         height="229.04042"
         x="144.90868"
         y="14.3937"
         transform="matrix(0.96741125,0.25321033,-0.25321033,0.96741125,0,0)" />
    </clipPath>
    <clipPath
       clipPathUnits="userSpaceOnUse"
       id="clipPath3380">
      <rect
         style="fill:#0000ff;fill-rule:evenodd;stroke:#000000;stroke-width:1px;stroke-linecap:butt;stroke-linejoin:miter;stroke-opacity:1"
         id="rect3382"
         width="199.16559"
         height="229.04042"
         x="-13.346666"
         y="26.226475"
         transform="matrix(0.96741125,0.25321033,-0.25321033,0.96741125,0,0)" />
    </clipPath>
    <clipPath
       clipPathUnits="userSpaceOnUse"
       id="clipPath3384">
      <rect
         style="fill:#0000ff;fill-rule:evenodd;stroke:#000000;stroke-width:1.13100076px;stroke-linecap:butt;stroke-linejoin:miter;stroke-opacity:1"
         id="rect3386"
         width="234.89468"
         height="248.41507"
         x="-188.06657"
         y="79.153679"
         transform="matrix(0.99999837,-0.00180738,0.06732821,0.99773088,0,0)" />
    </clipPath>
    <clipPath
       clipPathUnits="userSpaceOnUse"
       id="clipPath3388">
      <rect
         style="fill:#0000ff;fill-rule:evenodd;stroke:#000000;stroke-width:1.12978899px;stroke-linecap:butt;stroke-linejoin:miter;stroke-opacity:1"
         id="rect3390"
         width="237.31813"
         height="245.35173"
         x="31.837124"
         y="36.300446"
         transform="matrix(0.95583643,0.29389916,-0.29389912,0.95583644,0,0)" />
    </clipPath>
    <clipPath
       clipPathUnits="userSpaceOnUse"
       id="clipPath3392">
      <rect
         style="fill:#0000ff;fill-rule:evenodd;stroke:#000000;stroke-width:1px;stroke-linecap:butt;stroke-linejoin:miter;stroke-opacity:1"
         id="rect3394"
         width="199.16533"
         height="229.04013"
         x="-126.13804"
         y="-70.555519" />
    </clipPath>
    <clipPath
       clipPathUnits="userSpaceOnUse"
       id="clipPath3396">
      <rect
         style="fill:#0000ff;fill-rule:evenodd;stroke:#000000;stroke-width:1px;stroke-linecap:butt;stroke-linejoin:miter;stroke-opacity:1"
         id="rect3398"
         width="199.16533"
         height="229.04013"
         x="-126.13804"
         y="-70.555519" />
    </clipPath>
    <clipPath
       clipPathUnits="userSpaceOnUse"
       id="clipPath3400">
      <rect
         style="fill:#0000ff;fill-rule:evenodd;stroke:#000000;stroke-width:1px;stroke-linecap:butt;stroke-linejoin:miter;stroke-opacity:1"
         id="rect3402"
         width="199.16533"
         height="229.04013"
         x="-126.13804"
         y="-70.555519" />
    </clipPath>
    <clipPath
       clipPathUnits="userSpaceOnUse"
       id="clipPath3404">
      <rect
         style="fill:#0000ff;fill-rule:evenodd;stroke:#000000;stroke-width:1px;stroke-linecap:butt;stroke-linejoin:miter;stroke-opacity:1"
         id="rect3406"
         width="199.16533"
         height="229.04013"
         x="-126.13804"
         y="-70.555519" />
    </clipPath>
    <clipPath
       clipPathUnits="userSpaceOnUse"
       id="clipPath3408">
      <rect
         style="fill:#0000ff;fill-rule:evenodd;stroke:#000000;stroke-width:1px;stroke-linecap:butt;stroke-linejoin:miter;stroke-opacity:1"
         id="rect3410"
         width="199.16533"
         height="229.04013"
         x="-126.13804"
         y="-70.555519" />
    </clipPath>
    <clipPath
       clipPathUnits="userSpaceOnUse"
       id="clipPath4023">
      <rect
         style="fill:#0000ff;fill-rule:evenodd;stroke:#000000;stroke-width:0.30390427px;stroke-linecap:butt;stroke-linejoin:miter;stroke-opacity:1"
         id="rect4025"
         width="30.225861"
         height="30.225861"
         x="2.799088"
         y="14.533384" />
    </clipPath>
    <clipPath
       clipPathUnits="userSpaceOnUse"
       id="clipPath3408-3">
      <rect
         style="fill:#0000ff;fill-rule:evenodd;stroke:#000000;stroke-width:1px;stroke-linecap:butt;stroke-linejoin:miter;stroke-opacity:1"
         id="rect3410-6"
         width="199.16533"
         height="229.04013"
         x="-126.13804"
         y="-70.555519" />
    </clipPath>
    <clipPath
       clipPathUnits="userSpaceOnUse"
       id="clipPath3404-7">
      <rect
         style="fill:#0000ff;fill-rule:evenodd;stroke:#000000;stroke-width:1px;stroke-linecap:butt;stroke-linejoin:miter;stroke-opacity:1"
         id="rect3406-5"
         width="199.16533"
         height="229.04013"
         x="-126.13804"
         y="-70.555519" />
    </clipPath>
    <clipPath
       clipPathUnits="userSpaceOnUse"
       id="clipPath3400-3">
      <rect
         style="fill:#0000ff;fill-rule:evenodd;stroke:#000000;stroke-width:1px;stroke-linecap:butt;stroke-linejoin:miter;stroke-opacity:1"
         id="rect3402-5"
         width="199.16533"
         height="229.04013"
         x="-126.13804"
         y="-70.555519" />
    </clipPath>
    <clipPath
       clipPathUnits="userSpaceOnUse"
       id="clipPath3396-6">
      <rect
         style="fill:#0000ff;fill-rule:evenodd;stroke:#000000;stroke-width:1px;stroke-linecap:butt;stroke-linejoin:miter;stroke-opacity:1"
         id="rect3398-2"
         width="199.16533"
         height="229.04013"
         x="-126.13804"
         y="-70.555519" />
    </clipPath>
    <clipPath
       clipPathUnits="userSpaceOnUse"
       id="clipPath3392-9">
      <rect
         style="fill:#0000ff;fill-rule:evenodd;stroke:#000000;stroke-width:1px;stroke-linecap:butt;stroke-linejoin:miter;stroke-opacity:1"
         id="rect3394-1"
         width="199.16533"
         height="229.04013"
         x="-126.13804"
         y="-70.555519" />
    </clipPath>
    <clipPath
       clipPathUnits="userSpaceOnUse"
       id="clipPath3356-2">
      <rect
         style="fill:#0000ff;fill-rule:evenodd;stroke:#000000;stroke-width:1px;stroke-linecap:butt;stroke-linejoin:miter;stroke-opacity:1"
         id="rect3358-7"
         width="199.16533"
         height="229.04013"
         x="-126.13804"
         y="-70.555519" />
    </clipPath>
    <clipPath
       clipPathUnits="userSpaceOnUse"
       id="clipPath3352-0">
      <rect
         style="fill:#0000ff;fill-rule:evenodd;stroke:#000000;stroke-width:1px;stroke-linecap:butt;stroke-linejoin:miter;stroke-opacity:1"
         id="rect3354-9"
         width="199.16533"
         height="229.04013"
         x="-126.13804"
         y="-70.555519" />
    </clipPath>
    <clipPath
       clipPathUnits="userSpaceOnUse"
       id="clipPath3348-3">
      <rect
         style="fill:#0000ff;fill-rule:evenodd;stroke:#000000;stroke-width:1px;stroke-linecap:butt;stroke-linejoin:miter;stroke-opacity:1"
         id="rect3350-6"
         width="199.16533"
         height="229.04013"
         x="-126.13804"
         y="-70.555519" />
    </clipPath>
    <clipPath
       clipPathUnits="userSpaceOnUse"
       id="clipPath3344-0">
      <rect
         style="fill:#0000ff;fill-rule:evenodd;stroke:#000000;stroke-width:1px;stroke-linecap:butt;stroke-linejoin:miter;stroke-opacity:1"
         id="rect3346-6"
         width="199.16533"
         height="229.04013"
         x="-126.13804"
         y="-70.555519" />
    </clipPath>
    <clipPath
       clipPathUnits="userSpaceOnUse"
       id="clipPath3263">
      <rect
         style="fill:#0000ff;fill-rule:evenodd;stroke:#000000;stroke-width:1px;stroke-linecap:butt;stroke-linejoin:miter;stroke-opacity:1"
         id="rect3265"
         width="127.82259"
         height="127.82259"
         x="0.36836278"
         y="0.91414392" />
    </clipPath>
  </defs>
  <sodipodi:namedview
     pagecolor="#ffffff"
     bordercolor="#666666"
     borderopacity="1"
     objecttolerance="10"
     gridtolerance="10"
     guidetolerance="10"
     inkscape:pageopacity="0"
     inkscape:pageshadow="2"
     inkscape:window-width="1366"
     inkscape:window-height="744"
     id="namedview80"
     showgrid="false"
     inkscape:zoom="2.7147002"
     inkscape:cx="54.320271"
     inkscape:cy="70.515045"
     inkscape:window-x="0"
     inkscape:window-y="24"
     inkscape:window-maximized="1"
     inkscape:current-layer="svg2" />
  <g
     id="g22"
     transform="matrix(0.84779,0.00167,-0.05721,0.92399,33.32211,-134.18721)"
     clip-path="url(#clipPath3384)">
    <path
       inkscape:connector-curvature="0"
       id="path24"
       transform="translate(23.57143,72.85714)"
       d="m 159.28572,197.36218 c 0,3.15592 -3.99746,5.71429 -8.92857,5.71429 -4.93111,0 -8.92857,-2.55837 -8.92857,-5.71429 0,-3.15592 3.99745,-5.71428 8.92857,-5.71428 4.93112,0 8.92857,2.55837 8.92857,5.71428 z" />
    <path
       style="stroke:#000000;stroke-width:1.58169997;stroke-linecap:round;stroke-linejoin:round"
       inkscape:connector-curvature="0"
       id="path26"
       d="m 182.28149,270.35796 -2.85715,-47.57989 c 17.66633,12.39446 14.31656,12.74769 10.69525,24.17989 13.84048,-13.44826 3.3412,-17.73831 -10.83388,-24.37255" />
  </g>
  <g
     id="g28"
     transform="matrix(0.96741,-0.25321,0.25321,0.96741,-112.79139,-87.433503)"
     clip-path="url(#clipPath3380)">
    <path
       inkscape:connector-curvature="0"
       id="path30"
       transform="matrix(0.80217,0.27436,0.24665,-0.89229,191.07676,342.2976)"
       d="m 159.28572,197.36218 c 0,3.15592 -3.99746,5.71429 -8.92857,5.71429 -4.93111,0 -8.92857,-2.55837 -8.92857,-5.71429 0,-3.15592 3.99745,-5.71428 8.92857,-5.71428 4.93112,0 8.92857,2.55837 8.92857,5.71428 z" />
    <path
       style="stroke:#000000;stroke-width:1.39999998;stroke-linecap:round;stroke-linejoin:round"
       inkscape:connector-curvature="0"
       id="path32"
       d="m 354.12227,204.68929 -14.02758,41.6713 c 17.22853,-6.21252 14.62857,-7.44675 14.54343,-18.64117 7.78539,15.79709 -1.69497,16.74446 -14.70215,18.77504" />
  </g>
  <g
     id="g34"
     transform="matrix(0.96741,-0.25321,0.25321,0.96741,-271.04652,-75.600743)"
     clip-path="url(#clipPath3376)">
    <path
       inkscape:connector-curvature="0"
       id="path36"
       transform="matrix(0.80217,0.27436,0.24665,-0.89229,191.07676,342.2976)"
       d="m 159.28572,197.36218 c 0,3.15592 -3.99746,5.71429 -8.92857,5.71429 -4.93111,0 -8.92857,-2.55837 -8.92857,-5.71429 0,-3.15592 3.99745,-5.71428 8.92857,-5.71428 4.93112,0 8.92857,2.55837 8.92857,5.71428 z" />
    <path
       style="stroke:#000000;stroke-width:1.39999998;stroke-linecap:round;stroke-linejoin:round"
       inkscape:connector-curvature="0"
       id="path38"
       d="m 354.12227,204.68929 -14.02758,41.6713 c 17.22853,-6.21252 14.62857,-7.44675 14.54343,-18.64117 7.78539,15.79709 -1.69497,16.74446 -14.70215,18.77504" />
  </g>
  <g
     id="g40"
     transform="translate(101.73334,-194.5423)"
     clip-path="url(#clipPath3372)">
    <path
       inkscape:connector-curvature="0"
       id="path42"
       transform="matrix(0.78619,0,0,0.83335,127.39626,129.93952)"
       d="m 159.28572,197.36218 c 0,3.15592 -3.99746,5.71429 -8.92857,5.71429 -4.93111,0 -8.92857,-2.55837 -8.92857,-5.71429 0,-3.15592 3.99745,-5.71428 8.92857,-5.71428 4.93112,0 8.92857,2.55837 8.92857,5.71428 z" />
    <path
       inkscape:connector-curvature="0"
       id="path44"
       transform="matrix(0.78619,0,0,0.83335,147.61267,122.89176)"
       d="m 159.28572,197.36218 c 0,3.15592 -3.99746,5.71429 -8.92857,5.71429 -4.93111,0 -8.92857,-2.55837 -8.92857,-5.71429 0,-3.15592 3.99745,-5.71428 8.92857,-5.71428 4.93112,0 8.92857,2.55837 8.92857,5.71428 z" />
    <path
       style="fill:none;stroke:#000000;stroke-width:1.70000005"
       inkscape:connector-curvature="0"
       id="path46"
       d="m 251.76946,294.21289 -2.13507,-35.29268 20.8274,-5.22232 -20.21154,6.52789 19.61927,-5.03581 2.12328,31.71486" />
  </g>
  <g
     id="g48"
     transform="matrix(-0.84355,0,0,-0.88405,447.72989,319.83616)"
     clip-path="url(#clipPath3368)">
    <path
       inkscape:connector-curvature="0"
       id="path50"
       transform="matrix(0.78619,0,0,0.83335,127.39626,129.93952)"
       d="m 159.28572,197.36218 c 0,3.15592 -3.99746,5.71429 -8.92857,5.71429 -4.93111,0 -8.92857,-2.55837 -8.92857,-5.71429 0,-3.15592 3.99745,-5.71428 8.92857,-5.71428 4.93112,0 8.92857,2.55837 8.92857,5.71428 z" />
    <path
       inkscape:connector-curvature="0"
       id="path52"
       transform="matrix(0.78619,0,0,0.83335,147.61267,122.89176)"
       d="m 159.28572,197.36218 c 0,3.15592 -3.99746,5.71429 -8.92857,5.71429 -4.93111,0 -8.92857,-2.55837 -8.92857,-5.71429 0,-3.15592 3.99745,-5.71428 8.92857,-5.71428 4.93112,0 8.92857,2.55837 8.92857,5.71428 z" />
    <path
       style="fill:none;stroke:#000000;stroke-width:1.96859002"
       inkscape:connector-curvature="0"
       id="path54"
       d="m 251.61954,294.51314 -1.98515,-35.59293 20.67502,-5.22232 -20.05916,6.52789 19.61927,-5.03581 2.24985,32.15119" />
  </g>
  <path
     style="fill:none;stroke:#000000;stroke-width:0.99999678"
     inkscape:connector-curvature="0"
     id="path56"
     d="m 96.769688,52.048773 c 1.165292,2.237011 -0.478451,5.488587 -3.671394,7.262603 -3.192943,1.774016 -6.725991,1.398693 -7.891283,-0.838318 -1.165292,-2.237011 0.478448,-5.488576 3.671398,-7.262595 3.192949,-1.77402 6.725991,-1.398693 7.891279,0.83831 z"
     clip-path="url(#clipPath3364)"
     transform="translate(0,9.3484573)" />
  <path
     style="fill:none;stroke:#000000"
     inkscape:connector-curvature="0"
     id="path58"
     d="m 197.71268,104.61232 0.7309,-43.12302"
     clip-path="url(#clipPath3360)"
     transform="translate(0,9.3484573)" />
  <path
     style="fill:none;stroke:#000000"
     inkscape:connector-curvature="0"
     id="path68"
     d="m 387.31429,36.49047 3.75764,40.93358"
     clip-path="url(#clipPath3340)"
     transform="translate(0,9.3484573)" />
  <path
     style="fill:none;stroke:#000000;stroke-width:3.5"
     inkscape:connector-curvature="0"
     id="path70"
     d="m 413.29494,39.07226 7.85476,-5.16358"
     clip-path="url(#clipPath3336)"
     transform="translate(0,9.3484573)" />
  <path
     inkscape:connector-curvature="0"
     id="path72"
     d="m 252.13829,24.27632 c 4.98861,4.56805 4.07137,9.48693 4.45377,10.10265 l 7.89753,3.89495 c -11.35697,-2.58075 -8.02899,9.8877 1.35127,12.42104 -9.57261,-10.73003 -5.64076,-8.03675 0.86038,-12.07991 -6.53851,-5.59835 -2.37479,-9.31376 -4.44548,-10.42928 l -10.11752,-3.90945 5e-5,0 z"
     clip-path="url(#clipPath3332)"
     transform="translate(0,9.3484573)" />
  <g
     id="g74"
     transform="translate(-38.81905,-162.31373)"
     clip-path="url(#clipPath3328)">
    <path
       style="fill:none;stroke:#000000"
       inkscape:connector-curvature="0"
       id="path76"
       d="m 367.63954,233.40117 c -4.95547,2.45972 -7.97043,-2.18261 -9.30319,-2.89848 -1.29402,-0.69507 -3.24516,1.43146 -3.31923,2.89848 -0.0667,1.32133 0.98646,3.2708 2.43098,3.36598 6.38009,-0.69042 10.34978,-2.60323 17.20389,-8.78895 l -17.48438,38.05425" />
    <path
       inkscape:connector-curvature="0"
       id="path78"
       d="m 356.89666,236.17044 c -0.73798,-0.4419 -1.36092,-1.44493 -1.47323,-2.37211 -0.16636,-1.37337 1.50819,-3.38439 2.58869,-3.10884 0.12842,0.0327 0.74267,0.49725 1.36504,1.03224 1.99949,1.71877 3.22276,2.44561 4.6869,2.78484 l 0.80015,0.18539 -0.92276,0.3236 c -1.33193,0.46708 -3.11461,0.90153 -4.66078,1.13585 -1.66362,0.25211 -1.99039,0.25473 -2.38401,0.019 z" />
  </g>
  <g
     id="g3226"
     transform="matrix(1.0176222,0,0,1,-0.38977788,-0.3683648)"
     clip-path="url(#clipPath3263)"
     inkscape:export-xdpi="90.260002"
     inkscape:export-ydpi="90.260002">
    <path
       inkscape:export-ydpi="92"
       inkscape:export-xdpi="92"
       transform="matrix(1.712182,0,0,1.1230771,1.0473458,-3.2933112)"
       clip-path="url(#clipPath3408)"
       d="M 1.57143,66.21428 C 18.07466,88.54219 106.63553,9.18963 134.42857,8.35714 156.20029,7.70501 132.59603,61.90036 152.28572,71.21428 199.228,93.41963 246.57775,-9.31568 295.14286,9.07143 c 14.7434,5.58196 5.33022,37.08447 20,42.85714 C 357.68438,68.66899 442.28572,0.5 442.28572,0.5"
       id="path6"
       inkscape:connector-curvature="0"
       style="fill:none;fill-opacity:1;stroke:#fd5927;stroke-opacity:1" />
    <g
       inkscape:export-ydpi="89.148956"
       inkscape:export-xdpi="89.148956"
       id="g3309">
      <path
         style="fill:none;stroke:#fd5927;stroke-opacity:1"
         inkscape:connector-curvature="0"
         id="path8"
         d="m 1.21429,76.41988 c 16.50323,22.32791 105.0641,-57.02465 132.85714,-57.85714 21.77172,-0.65213 -1.83254,53.54322 17.85715,62.85714 46.94227,22.20535 94.29202,-80.52996 142.85713,-62.14285 14.7434,5.58196 5.33022,37.08447 20,42.85714 C 357.32723,78.87459 441.92858,10.7056 441.92858,10.7056"
         clip-path="url(#clipPath3404)"
         transform="matrix(1.712182,0,0,1.1230771,1.0473458,-3.2933112)"
         inkscape:export-xdpi="92"
         inkscape:export-ydpi="92" />
      <path
         style="fill:none;stroke:#fd5927;stroke-opacity:1"
         inkscape:connector-curvature="0"
         id="path10"
         d="m 1.92857,86.41987 c 16.50323,22.32791 105.0641,-57.02465 132.85714,-57.85714 21.77172,-0.65213 -1.83254,53.54322 17.85715,62.85714 46.94228,22.20535 94.29203,-80.52996 142.85714,-62.14285 14.7434,5.58196 5.33022,37.08447 20,42.85714 42.54152,16.74042 127.14286,-51.42857 127.14286,-51.42857"
         clip-path="url(#clipPath3400)"
         transform="matrix(1.712182,0,0,1.1230771,1.0473458,-3.2933112)"
         inkscape:export-xdpi="92"
         inkscape:export-ydpi="92" />
      <path
         style="fill:none;stroke:#fd5927;stroke-opacity:1"
         inkscape:connector-curvature="0"
         id="path12"
         d="m 1.21428,98.56275 c 16.50324,22.32791 105.06409,-57.02466 132.85714,-57.85715 21.77172,-0.65213 -1.83254,53.54323 17.85715,62.85715 46.94228,22.20535 94.29203,-80.52997 142.85714,-62.14286 14.7434,5.58197 5.33022,37.08448 20,42.85715 42.54152,16.74042 127.14286,-51.42858 127.14286,-51.42858"
         clip-path="url(#clipPath3396)"
         transform="matrix(1.712182,0,0,1.1230771,1.0473458,-3.2933112)"
         inkscape:export-xdpi="92"
         inkscape:export-ydpi="92" />
      <path
         style="fill:none;stroke:#fd5927;stroke-opacity:1"
         inkscape:connector-curvature="0"
         id="path14"
         d="m 0.5,109.99131 c 16.50323,22.32791 105.0641,-57.02465 132.85714,-57.85714 21.77172,-0.65213 -1.83254,53.54322 17.85715,62.85714 46.94228,22.20535 94.29203,-80.52996 142.85714,-62.14285 14.7434,5.58196 5.33022,37.08447 20,42.85714 42.54152,16.74042 127.14286,-51.42857 127.14286,-51.42857"
         clip-path="url(#clipPath3392)"
         transform="matrix(1.712182,0,0,1.1230771,1.0473458,-3.2933112)"
         inkscape:export-xdpi="92"
         inkscape:export-ydpi="92" />
      <path
         d="m 63.539513,102.30707 c 0.83344,1.97769 -1.924275,4.35117 -6.159521,5.30133 -4.235246,0.95015 -8.344231,0.11716 -9.177672,-1.86053 -0.833441,-1.97769 1.924269,-4.35117 6.159524,-5.30132 4.235254,-0.950156 8.344231,-0.11717 9.177669,1.86052 z"
         id="path18"
         inkscape:connector-curvature="0"
         style="fill:#fd5927;fill-opacity:1"
         inkscape:export-xdpi="92"
         inkscape:export-ydpi="92" />
      <path
         d="M 63.081698,102.50487 48.062462,73.238897 C 66.509,77.601994 63.725223,78.468801 63.634049,86.330696 71.969877,75.236332 61.819273,74.570975 47.892516,73.144876"
         id="path20"
         inkscape:connector-curvature="0"
         style="fill:#fd5927;fill-opacity:1;stroke:#fd5927;stroke-width:1.21401525;stroke-linecap:round;stroke-linejoin:round;stroke-opacity:1"
         inkscape:export-xdpi="92"
         inkscape:export-ydpi="92" />
      <path
         style="fill:none;stroke:#fd5927;stroke-opacity:1"
         inkscape:connector-curvature="0"
         id="path60"
         d="m 12.79535,69.52919 -0.24363,43.61028"
         clip-path="url(#clipPath3356)"
         transform="matrix(1.712182,0,0,1.1230771,1.0473458,-3.2933112)"
         inkscape:export-xdpi="92"
         inkscape:export-ydpi="92" />
      <path
         style="fill:none;stroke:#fd5927;stroke-opacity:1"
         inkscape:connector-curvature="0"
         id="path62"
         d="M 16.44984,112.40857 16.20621,69.04192"
         clip-path="url(#clipPath3352)"
         transform="matrix(1.712182,0,0,1.1230771,1.0473458,-3.2933112)"
         inkscape:export-xdpi="92"
         inkscape:export-ydpi="92" />
      <path
         style="fill:#fd5927;fill-opacity:1;stroke:#fd5927;stroke-linecap:round;stroke-linejoin:round;stroke-opacity:1"
         inkscape:connector-curvature="0"
         id="path64"
         d="m 21.80977,84.99987 c 0,0.87461 -0.54539,1.58361 -1.21817,1.58361 -0.67278,0 -1.21816,-0.709 -1.21816,-1.58361 0,-0.87461 0.54539,-1.58361 1.21816,-1.58361 0.67277,0 1.21817,0.709 1.21817,1.58361 z"
         clip-path="url(#clipPath3348)"
         transform="matrix(1.712182,0,0,1.1230771,1.0473458,-3.2933112)"
         inkscape:export-xdpi="92"
         inkscape:export-ydpi="92" />
      <path
         style="fill:#fd5927;fill-opacity:1;stroke:#fd5927;stroke-linecap:round;stroke-linejoin:round;stroke-opacity:1"
         inkscape:connector-curvature="0"
         id="path66"
         d="m 22.0534,94.1361 c 0,0.87461 -0.54539,1.58361 -1.21817,1.58361 -0.67278,0 -1.21816,-0.709 -1.21816,-1.58361 0,-0.87461 0.54539,-1.58361 1.21816,-1.58361 0.67277,0 1.21817,0.709 1.21817,1.58361 z"
         clip-path="url(#clipPath3344)"
         transform="matrix(1.712182,0,0,1.1230771,1.0473458,-3.2933112)"
         inkscape:export-xdpi="92"
         inkscape:export-ydpi="92" />
      <path
         d="m 83.202137,95.419832 8.1609,-30.380992 c 0,0 13.457493,-21.259061 16.090033,-25.961914 2.63254,-4.702854 5.73432,-12.716631 6.71009,-13.532532 0.97577,-0.815898 5.38544,-1.584378 7.5674,-0.07329 3.09338,1.582928 4.90267,5.073404 4.83831,5.961108 -0.61662,2.183352 -7.00745,8.152429 -12.73919,23.993992 -3.06958,7.569935 -2.33004,16.332801 -2.33004,16.332801 0,0 -8.28314,0.463291 -12.658043,3.912868 -6.76606,4.823539 -15.65556,19.969889 -15.63946,19.747961 z"
         id="path129"
         style="fill:#fd5927;fill-opacity:1;fill-rule:evenodd;stroke:#fd5927;stroke-width:0.13071732;stroke-opacity:1"
         inkscape:connector-curvature="0"
         inkscape:export-xdpi="92"
         inkscape:export-ydpi="92" />
      <path
         d="m 96.745287,62.645642 a 0.89218883,2.2254001 29.298914 1 0 -1.48628,-0.995835 0.89218883,2.2254001 29.298914 0 0 1.48628,0.995835 z"
         id="path137"
         inkscape:connector-curvature="0"
         style="fill:#ffffff;fill-rule:evenodd"
         inkscape:export-xdpi="92"
         inkscape:export-ydpi="92" />
      <path
         d="m 94.879197,63.843737 c -6.26472,12.411198 -11.72146,31.615588 -11.72146,31.615588"
         id="path139"
         style="fill:#ffffff;stroke:url(#linearGradient610);stroke-width:0.24509494"
         inkscape:connector-curvature="0"
         inkscape:export-xdpi="92"
         inkscape:export-ydpi="92" />
    </g>
  </g>
  <text
     xml:space="preserve"
     style="font-style:normal;font-variant:normal;font-weight:normal;font-stretch:normal;font-size:30px;line-height:125%;font-family:'Glacial Indifference';-inkscape-font-specification:'Glacial Indifference';letter-spacing:0px;word-spacing:0px;writing-mode:lr-tb;fill:#fd5927;fill-opacity:1;stroke:none;stroke-width:1px;stroke-linecap:butt;stroke-linejoin:miter;stroke-opacity:1"
     x="5.0740633"
     y="-15.44567"
     id="text4027"
     sodipodi:linespacing="125%"
     inkscape:export-xdpi="89.148956"
     inkscape:export-ydpi="89.148956"><tspan
       sodipodi:role="line"
       id="tspan4029"
       x="5.0740633"
       y="-15.44567">Christian</tspan></text>
</svg>
