<?xml version="1.0" standalone="no"?>
<!DOCTYPE svg PUBLIC "-//W3C//DTD SVG 20010904//EN"
 "http://www.w3.org/TR/2001/REC-SVG-20010904/DTD/svg10.dtd">
<svg version="1.0" xmlns="http://www.w3.org/2000/svg"
 width="16.000000pt" height="16.000000pt" viewBox="0 0 16.000000 16.000000"
 preserveAspectRatio="xMidYMid meet">
<metadata>
Created by potrace 1.11, written by Peter Selinger 2001-2013
</metadata>
<g transform="translate(0.000000,16.000000) scale(0.006154,-0.006154)"
fill="#000000" stroke="none">
<path d="M1855 2303 c-42 -16 -105 -18 -465 -14 -102 1 -210 -1 -240 -5 -157
-19 -283 -73 -344 -148 -17 -21 -51 -48 -76 -61 -152 -77 -227 -258 -190 -454
9 -50 60 -205 65 -199 2 2 6 32 9 67 18 174 52 248 132 287 50 24 65 26 226
30 132 3 195 9 266 26 104 24 117 20 102 -33 -5 -16 -8 -29 -6 -29 1 0 25 11
53 24 145 71 284 78 392 22 89 -47 181 -181 235 -341 l24 -70 13 45 c8 27 14
96 14 175 0 153 -23 244 -80 319 l-34 45 20 68 c18 63 27 192 14 212 -3 5 -27
3 -55 -4 l-50 -13 15 21 c16 23 20 48 8 46 -5 -1 -26 -8 -48 -16z"/>
<path d="M718 1375 c-2 -1 -41 -5 -87 -9 -46 -3 -87 -9 -92 -12 -10 -6 -12
-87 -3 -134 4 -20 16 -36 30 -42 16 -8 32 -33 50 -81 36 -94 63 -106 265 -112
135 -4 240 13 275 46 12 11 31 47 43 79 52 141 151 141 202 -1 37 -101 81
-122 266 -125 122 -2 229 12 270 34 13 7 32 39 48 83 20 51 34 73 51 79 13 5
24 11 24 12 8 44 9 157 2 162 -20 12 -192 21 -392 20 -192 -1 -210 -3 -275
-26 -71 -25 -129 -29 -169 -10 -62 30 -101 35 -298 38 -113 1 -208 1 -210 -1z
m352 -40 c83 -18 125 -67 114 -131 -24 -147 -52 -179 -166 -192 -83 -10 -215
-6 -264 7 -54 15 -91 52 -108 110 -15 52 -14 128 4 161 13 24 45 42 90 50 48
8 287 5 330 -5z m838 -9 c19 -10 39 -31 47 -49 30 -72 -5 -205 -63 -239 -39
-24 -120 -34 -230 -31 -174 5 -209 27 -238 151 -35 150 27 189 304 187 119 -1
153 -5 180 -19z"/>
<path d="M1645 740 c8 -12 68 -38 113 -48 46 -11 48 2 4 20 -46 18 -122 37
-117 28z"/>
<path d="M858 695 c-37 -25 -64 -65 -30 -45 31 18 76 59 71 64 -3 3 -21 -5
-41 -19z"/>
<path d="M912 643 c38 -46 188 -100 286 -103 8 0 0 -16 -18 -38 -17 -21 -33
-55 -37 -74 -6 -42 5 -54 94 -106 l58 -33 -45 7 c-58 8 -93 26 -108 56 -17 31
-22 96 -10 127 6 18 6 23 -1 16 -16 -16 -28 -87 -20 -123 9 -46 33 -68 92 -88
91 -30 210 -1 276 67 69 72 74 158 11 202 -19 13 -16 16 48 41 37 15 78 36 92
47 25 19 24 19 -22 0 -87 -37 -154 -51 -253 -56 -38 -2 -94 -7 -122 -10 -68
-9 -200 17 -275 53 -32 16 -52 22 -46 15z"/>
</g>
</svg>
